<svg width="45" height="45" viewBox="0 0 45 45" fill="none" xmlns="http://www.w3.org/2000/svg">
<circle cx="22.5" cy="22.5" r="22" stroke="#E4E4E4"/>
<path d="M23.4844 24.306H23.3344V24.456V33.6H20.5406V24.456V24.306H20.3906H17.2969C16.5271 24.306 15.9 23.6741 15.9 22.8909C15.9 22.1076 16.5271 21.4757 17.2969 21.4757H20.3906H20.5406V21.3257V18.1954C20.5406 15.6834 22.5527 13.65 25.0313 13.65H25.8047C26.5745 13.65 27.2016 14.2819 27.2016 15.0651C27.2016 15.8484 26.5745 16.4803 25.8047 16.4803H25.0313C24.0924 16.4803 23.3344 17.2499 23.3344 18.1954V21.3257V21.4757H23.4844H26.5781C27.348 21.4757 27.975 22.1076 27.975 22.8909C27.975 23.6741 27.348 24.306 26.5781 24.306H23.4844Z" fill="#00863E" stroke="#F9F9F9" stroke-width="0.3"/>
</svg>
