<svg width="45" height="45" viewBox="0 0 45 45" fill="none" xmlns="http://www.w3.org/2000/svg">
<circle cx="22.5" cy="22.5" r="22" stroke="#E4E4E4"/>
<path d="M27.25 12.3813C30.2151 12.3813 32.6187 14.7849 32.6187 17.75V26.5C32.6187 29.4651 30.2151 31.8687 27.25 31.8687H18.5C15.5349 31.8687 13.1313 29.4651 13.1313 26.5V17.75C13.1313 14.7849 15.5349 12.3813 18.5 12.3813H27.25ZM27.25 14.3688H18.5C16.6326 14.3688 15.1188 15.8826 15.1188 17.75V26.5C15.1188 28.3675 16.6326 29.8813 18.5 29.8813H27.25C29.1175 29.8813 30.6313 28.3675 30.6313 26.5V17.75C30.6313 15.8826 29.1175 14.3688 27.25 14.3688ZM22.875 17.85C25.236 17.85 27.15 19.764 27.15 22.125C27.15 24.486 25.236 26.4 22.875 26.4C20.514 26.4 18.6 24.486 18.6 22.125C18.6 19.764 20.514 17.85 22.875 17.85ZM22.875 19.8375C21.6116 19.8375 20.5875 20.8616 20.5875 22.125C20.5875 23.3884 21.6116 24.4125 22.875 24.4125C24.1384 24.4125 25.1625 23.3884 25.1625 22.125C25.1625 20.8616 24.1384 19.8375 22.875 19.8375ZM27.7969 16.2094C28.3457 16.2094 28.7906 16.6543 28.7906 17.2031C28.7906 17.752 28.3457 18.1969 27.7969 18.1969C27.248 18.1969 26.8031 17.752 26.8031 17.2031C26.8031 16.6543 27.248 16.2094 27.7969 16.2094Z" fill="#00863E" stroke="#F9F9F9" stroke-width="0.2"/>
</svg>
