<svg width="45" height="45" viewBox="0 0 45 45" fill="none" xmlns="http://www.w3.org/2000/svg">
<circle cx="22.5" cy="22.5" r="22" stroke="#E4E4E4"/>
<path d="M10.7997 21.6317L10.7997 21.6317L29.2359 13.869L29.1971 13.7769L29.2359 13.869C30.3363 13.4057 31.516 14.3362 31.3217 15.5142L28.8755 30.3457C28.6504 31.7104 27.1527 32.4906 25.9034 31.812C24.8065 31.2162 23.1804 30.2999 21.7157 29.3428C20.9843 28.8649 20.2775 28.3667 19.6916 27.8849L19.6916 27.8849C19.3087 27.57 18.935 27.2285 18.6395 26.875L18.6133 26.8436L18.5726 26.8396C17.4841 26.7316 16.1196 26.3492 14.8609 25.9342C13.3284 25.4289 11.7996 24.8218 10.8001 24.4075C9.53493 23.883 9.59077 22.1406 10.7997 21.6317ZM12.7897 22.9163L12.563 23.0118L12.792 23.1016C13.6027 23.4194 14.5403 23.7687 15.4734 24.0763L15.4734 24.0764C16.6844 24.4756 17.7941 24.7719 18.5945 24.8743L18.6432 24.8805L18.6779 24.8458L23.3551 20.1687L23.2844 20.098L23.3551 20.1687C23.737 19.7867 24.3564 19.7867 24.7383 20.1687L24.809 20.098L24.7383 20.1687C25.1203 20.5506 25.1203 21.17 24.7383 21.5519L20.4678 25.8226L20.3953 25.8951L20.4696 25.9658C20.5985 26.0883 20.7526 26.2247 20.9341 26.374L20.9341 26.374C21.4434 26.7927 22.0852 27.2473 22.7858 27.7053L22.7858 27.7053C24.1709 28.6102 25.7255 29.4885 26.8029 30.0744L26.9265 30.1416L26.9494 30.0028L29.2325 16.1594L29.262 15.9806L29.095 16.0509L12.7897 22.9163Z" fill="#00863E" stroke="#F9F9F9" stroke-width="0.2"/>
</svg>
