<svg width="45" height="45" viewBox="0 0 45 45" fill="none" xmlns="http://www.w3.org/2000/svg">
<circle cx="22.5" cy="22.5" r="22" stroke="#E4E4E4"/>
<path d="M32.9375 17.3906C32.6563 16.4063 31.9531 15.7031 30.9688 15.4219C29.2813 15 22.1094 15 22.1094 15C22.1094 15 15.0781 15 13.25 15.4219C12.2656 15.7031 11.5625 16.4063 11.2812 17.3906C11 19.2188 11 22.875 11 22.875C11 22.875 11 26.5312 11.4219 28.3594C11.7031 29.3438 12.4062 30.0469 13.3906 30.3281C15.0781 30.75 22.25 30.75 22.25 30.75C22.25 30.75 29.2812 30.75 31.1094 30.3281C32.0937 30.0469 32.7969 29.3438 33.0781 28.3594C33.5 26.5312 33.5 22.875 33.5 22.875C33.5 22.875 33.5 19.2188 32.9375 17.3906ZM20 26.25V19.5L25.9063 22.875L20 26.25Z" fill="#00863E"/>
</svg>
