<svg width="50" height="50" viewBox="0 0 50 50" fill="none" xmlns="http://www.w3.org/2000/svg">
<circle cx="25" cy="25" r="24.5" stroke="#E4E4E4"/>
<path d="M30.2791 13.746C33.5797 13.746 36.2555 16.4217 36.2555 19.7224V29.4446C36.2555 32.7452 33.5797 35.421 30.2791 35.421H20.5569C17.2562 35.421 14.5805 32.7452 14.5805 29.4446V19.7224C14.5805 16.4217 17.2562 13.746 20.5569 13.746H30.2791ZM30.2791 15.9766H20.5569C18.4881 15.9766 16.811 17.6536 16.811 19.7224V29.4446C16.811 31.5134 18.4881 33.1904 20.5569 33.1904H30.2791C32.3479 33.1904 34.0249 31.5134 34.0249 29.4446V19.7224C34.0249 17.6536 32.3479 15.9766 30.2791 15.9766ZM25.418 19.8224C28.0474 19.8224 30.1791 21.954 30.1791 24.5835C30.1791 27.2129 28.0474 29.3446 25.418 29.3446C22.7885 29.3446 20.6569 27.2129 20.6569 24.5835C20.6569 21.954 22.7885 19.8224 25.418 19.8224ZM25.418 22.0529C24.0203 22.0529 22.8874 23.1859 22.8874 24.5835C22.8874 25.9811 24.0203 27.1141 25.418 27.1141C26.8156 27.1141 27.9485 25.9811 27.9485 24.5835C27.9485 23.1859 26.8156 22.0529 25.418 22.0529ZM30.8867 17.9995C31.5027 17.9995 32.002 18.4988 32.002 19.1147C32.002 19.7307 31.5027 20.23 30.8867 20.23C30.2708 20.23 29.7714 19.7307 29.7714 19.1147C29.7714 18.4988 30.2708 17.9995 30.8867 17.9995Z" fill="white" stroke="#00863E" stroke-width="0.2"/>
</svg>
