<svg width="50" height="50" viewBox="0 0 50 50" fill="none" xmlns="http://www.w3.org/2000/svg">
<circle cx="25" cy="25" r="24.5" stroke="#E4E4E4"/>
<path d="M32.4797 15.3995L32.4409 15.3074L32.4797 15.3995C33.7104 14.8813 35.0298 15.922 34.8125 17.2396L32.0945 33.7189C31.8432 35.2425 30.171 36.1139 28.7759 35.3562C27.557 34.6941 25.75 33.6758 24.1222 32.6122C23.3093 32.081 22.5236 31.5273 21.8722 30.9915L21.8722 30.9915C21.4465 30.6415 21.0306 30.2615 20.7017 29.8679L20.6755 29.8366L20.6348 29.8326C19.4241 29.7125 17.907 29.2872 16.5083 28.8261C14.8052 28.2645 13.1062 27.5898 11.9955 27.1294C10.5801 26.5426 10.6433 24.5938 11.995 24.0247L11.9562 23.9325L11.995 24.0247L32.4797 15.3995ZM14.2148 25.4725L13.9881 25.568L14.2171 25.6578C15.1177 26.0109 16.1593 26.3989 17.1958 26.7407L17.1958 26.7407C18.5412 27.1842 19.7733 27.5132 20.6617 27.6268L20.7103 27.633L20.745 27.5983L25.9419 22.4015L25.8712 22.3308L25.9419 22.4015C26.3706 21.9728 27.0658 21.9728 27.4946 22.4015C27.9233 22.8303 27.9233 23.5255 27.4946 23.9542L22.7495 28.6994L22.677 28.7719L22.7513 28.8426C22.8943 28.9785 23.0654 29.1298 23.2669 29.2956L23.2669 29.2956C23.8323 29.7605 24.545 30.2654 25.3233 30.7741L25.3233 30.7741C26.862 31.7793 28.5889 32.755 29.786 33.4059L29.9096 33.4731L29.9324 33.3344L32.4693 17.9528L32.4987 17.774L32.3318 17.8443L14.2148 25.4725Z" fill="white" stroke="#00863E" stroke-width="0.2"/>
</svg>
