<svg width="50" height="50" viewBox="0 0 50 50" fill="none" xmlns="http://www.w3.org/2000/svg">
<circle cx="25" cy="25" r="24.5" stroke="#E4E4E4"/>
<path d="M36.5977 19.3229C36.2852 18.2291 35.5039 17.4479 34.4102 17.1354C32.5352 16.6666 24.5664 16.6666 24.5664 16.6666C24.5664 16.6666 16.7539 16.6666 14.7227 17.1354C13.6289 17.4479 12.8477 18.2291 12.5352 19.3229C12.2227 21.3541 12.2227 25.4166 12.2227 25.4166C12.2227 25.4166 12.2227 29.4791 12.6914 31.5104C13.0039 32.6041 13.7852 33.3854 14.8789 33.6979C16.7539 34.1666 24.7227 34.1666 24.7227 34.1666C24.7227 34.1666 32.5351 34.1666 34.5664 33.6979C35.6601 33.3854 36.4414 32.6041 36.7539 31.5104C37.2227 29.4791 37.2227 25.4166 37.2227 25.4166C37.2227 25.4166 37.2227 21.3541 36.5977 19.3229ZM22.2226 29.1666V21.6666L28.7852 25.4166L22.2226 29.1666Z" fill="white"/>
</svg>
