<svg width="30" height="30" viewBox="0 0 30 30" fill="none" xmlns="http://www.w3.org/2000/svg">
<path d="M6.25173 12.325C8.65194 17.5507 12.916 21.6926 18.2092 23.94L19.0592 24.3188C20.0005 24.7379 21.0595 24.8114 22.0497 24.5262C23.0398 24.2411 23.8976 23.6156 24.4717 22.76L25.583 21.105C25.7569 20.8455 25.8273 20.5302 25.7803 20.2213C25.7333 19.9125 25.5724 19.6324 25.3292 19.4363L21.5642 16.3988C21.4331 16.293 21.282 16.2149 21.1199 16.1691C20.9578 16.1232 20.7882 16.1106 20.6211 16.132C20.454 16.1533 20.293 16.2083 20.1477 16.2934C20.0024 16.3786 19.8758 16.4922 19.7755 16.6275L18.6105 18.1988C15.62 16.7218 13.1994 14.3008 11.723 11.31L13.293 10.145C13.4283 10.0447 13.5419 9.9181 13.6271 9.77279C13.7122 9.62747 13.7671 9.46644 13.7885 9.29938C13.8099 9.13231 13.7973 8.96265 13.7514 8.80058C13.7056 8.63851 13.6274 8.48738 13.5217 8.35626L10.4842 4.59126C10.2881 4.34808 10.008 4.18715 9.69915 4.14019C9.39028 4.09322 9.07503 4.16362 8.81548 4.33751L7.14923 5.45501C6.28848 6.03223 5.66059 6.89628 5.37742 7.89322C5.09425 8.89016 5.17418 9.95525 5.60298 10.8988L6.25173 12.325Z" fill="#00863E"/>
</svg>
