<svg width="40" height="40" viewBox="0 0 40 40" fill="none" xmlns="http://www.w3.org/2000/svg">
<path fill-rule="evenodd" clip-rule="evenodd" d="M14.9987 5H13.332V14.3458C13.3322 14.907 13.1264 15.4488 12.7537 15.8683C10.9801 17.865 9.99989 20.4426 9.9987 23.1133V34.5475C9.9987 34.7975 10.2012 35 10.4512 35H17.8795C18.1295 35 18.332 34.7975 18.332 34.5475V23.1133C18.332 20.4425 17.352 17.8642 15.5779 15.8683C15.2049 15.4489 14.9988 14.9071 14.9987 14.3458V5ZM14.9987 3.33334C15.4407 3.33334 15.8646 3.50893 16.1772 3.82149C16.4898 4.13405 16.6654 4.55798 16.6654 5V14.3458C16.6654 14.4992 16.7212 14.6458 16.8237 14.7608C18.8682 17.0628 19.9978 20.0345 19.9987 23.1133V34.5475C19.9987 35.1095 19.7754 35.6486 19.378 36.046C18.9806 36.4434 18.4416 36.6667 17.8795 36.6667H10.4512C10.1729 36.6667 9.89734 36.6119 9.64023 36.5054C9.38312 36.3989 9.1495 36.2428 8.95272 36.046C8.75594 35.8492 8.59984 35.6156 8.49334 35.3585C8.38684 35.1014 8.33203 34.8258 8.33203 34.5475V23.1133C8.3329 20.0345 9.46251 17.0628 11.507 14.7608C11.6088 14.6466 11.6652 14.4989 11.6654 14.3458V5C11.6654 4.55798 11.841 4.13405 12.1535 3.82149C12.4661 3.50893 12.89 3.33334 13.332 3.33334H14.9987Z" fill="#00863E"/>
<path fill-rule="evenodd" clip-rule="evenodd" d="M18.332 25H9.9987V30H18.332V25ZM8.33203 23.3333V31.6667H19.9987V23.3333H8.33203ZM24.1645 15L23.4787 21.4567C23.4307 21.9039 23.4773 22.3562 23.6155 22.7841C23.7538 23.2121 23.9806 23.6062 24.2811 23.9408C24.5817 24.2754 24.9493 24.543 25.3601 24.7262C25.7709 24.9093 26.2156 25.004 26.6654 25.004C27.1151 25.004 27.5599 24.9093 27.9706 24.7262C28.3814 24.543 28.749 24.2754 29.0496 23.9408C29.3502 23.6062 29.577 23.2121 29.7152 22.7841C29.8534 22.3562 29.9001 21.9039 29.852 21.4567L29.1662 15H24.1645ZM30.6654 13.3333H22.6654L21.8212 21.28C21.7487 21.9595 21.82 22.6467 22.0303 23.2968C22.2407 23.947 22.5856 24.5456 23.0424 25.0538C23.4993 25.562 24.0579 25.9684 24.6821 26.2466C25.3063 26.5248 25.982 26.6686 26.6654 26.6686C27.3487 26.6686 28.0244 26.5248 28.6486 26.2466C29.2728 25.9684 29.8314 25.562 30.2883 25.0538C30.7452 24.5456 31.09 23.947 31.3004 23.2968C31.5108 22.6467 31.582 21.9595 31.5095 21.28L30.6654 13.3333Z" fill="#00863E"/>
<path fill-rule="evenodd" clip-rule="evenodd" d="M25.832 35.8333V25.8333H27.4987V35.8333H25.832Z" fill="#00863E"/>
<path fill-rule="evenodd" clip-rule="evenodd" d="M22.5 35.8333C22.5 35.6123 22.5878 35.4004 22.7441 35.2441C22.9004 35.0878 23.1123 35 23.3333 35H30C30.221 35 30.433 35.0878 30.5893 35.2441C30.7455 35.4004 30.8333 35.6123 30.8333 35.8333C30.8333 36.0543 30.7455 36.2663 30.5893 36.4226C30.433 36.5789 30.221 36.6667 30 36.6667H23.3333C23.1123 36.6667 22.9004 36.5789 22.7441 36.4226C22.5878 36.2663 22.5 36.0543 22.5 35.8333ZM30.4167 21.6667H22.9167V20H30.4167V21.6667Z" fill="#00863E"/>
</svg>
