<svg width="40" height="40" viewBox="0 0 40 40" fill="none" xmlns="http://www.w3.org/2000/svg">
<path d="M20 4C15.7565 4 11.6869 5.68571 8.68629 8.68629C5.68571 11.6869 4 15.7565 4 20C4 24.2435 5.68571 28.3131 8.68629 31.3137C11.6869 34.3143 15.7565 36 20 36C24.2435 36 28.3131 34.3143 31.3137 31.3137C34.3143 28.3131 36 24.2435 36 20C36 15.7565 34.3143 11.6869 31.3137 8.68629C28.3131 5.68571 24.2435 4 20 4ZM16.672 6.398C18.8597 5.86227 21.1443 5.86227 23.332 6.398L20 8.34L16.672 6.398ZM14.184 7.262L19.004 10.072V13.472L13.466 17.376L10.346 16.242L9.094 11.218C10.4596 9.52061 12.2025 8.16734 14.184 7.262ZM7.602 13.492L8.388 16.652L6.06 18.72C6.23 16.846 6.766 15.08 7.602 13.492ZM6.07 21.384L9.724 18.144L12.816 19.266L14.906 25.846L13.472 27.992H8.504C7.139 26.0346 6.30015 23.7591 6.068 21.384M10.194 29.992H13.302L14.322 32.8C12.7889 32.1189 11.3906 31.1678 10.194 29.992ZM16.746 33.62L15.116 29.128L16.536 27.002H23.47L24.892 29.128L23.262 33.618C21.1202 34.1305 18.8878 34.1325 16.746 33.62ZM25.688 32.794L26.708 29.99H29.806C28.612 31.1634 27.2173 32.1131 25.688 32.794ZM31.496 27.99H26.54L25.1 25.84L27.15 19.266L30.284 18.138L33.932 21.382C33.6998 23.7571 32.861 26.0326 31.496 27.99ZM33.942 18.714L31.622 16.652L32.408 13.508C33.236 15.088 33.772 16.848 33.942 18.714ZM30.914 11.23L29.664 16.236L26.496 17.376L21.002 13.472V10.072L25.82 7.26C27.8049 8.16798 29.55 9.5275 30.916 11.23M14.796 18.89L20 15.214L25.172 18.888L23.268 25H16.734L14.796 18.89Z" fill="#00863E"/>
</svg>
