<svg width="40" height="40" viewBox="0 0 40 40" fill="none" xmlns="http://www.w3.org/2000/svg">
<path fill-rule="evenodd" clip-rule="evenodd" d="M33.1228 20.5L19.7344 33.83C17.9501 35.5721 15.5502 36.5395 13.0565 36.5218C10.5628 36.5042 8.17685 35.5029 6.41733 33.7357C4.65782 31.9685 3.66697 29.5782 3.66019 27.0845C3.65341 24.5907 4.63124 22.1951 6.38111 20.4183L19.7694 7.08833C21.5538 5.34622 23.9537 4.37885 26.4474 4.3965C28.9411 4.41415 31.327 5.41541 33.0865 7.18261C34.8461 8.94981 35.8369 11.3401 35.8437 13.8339C35.8505 16.3276 34.8726 18.7233 33.1228 20.5ZM30.7894 9.47C29.6422 8.31931 28.0851 7.67092 26.4602 7.66717C24.8353 7.66342 23.2754 8.30462 22.1228 9.45L8.73277 22.78C7.58063 23.9271 6.93134 25.4848 6.92775 27.1106C6.92415 28.7364 7.56655 30.297 8.71361 31.4492C9.86067 32.6013 11.4184 33.2506 13.0442 33.2542C14.67 33.2578 16.2306 32.6154 17.3828 31.4683L30.7711 18.1383C31.9223 16.991 32.571 15.4336 32.5748 13.8083C32.5785 12.183 31.937 10.6226 30.7911 9.47H30.7894Z" fill="#00863E"/>
<path fill-rule="evenodd" clip-rule="evenodd" d="M13.5309 14.2067C13.8435 13.8942 14.2673 13.7187 14.7093 13.7187C15.1512 13.7187 15.5751 13.8942 15.8876 14.2067L25.9709 24.29C26.2745 24.6043 26.4425 25.0253 26.4387 25.4623C26.4349 25.8993 26.2597 26.3174 25.9506 26.6264C25.6416 26.9354 25.2236 27.1107 24.7866 27.1145C24.3496 27.1183 23.9286 26.9503 23.6143 26.6467L13.5309 16.5633C13.2185 16.2508 13.043 15.8269 13.043 15.385C13.043 14.9431 13.2185 14.5192 13.5309 14.2067Z" fill="#00863E"/>
</svg>
